<?xml version="1.0" encoding="UTF-8" standalone="no"?>
<!-- Created with Inkscape (http://www.inkscape.org/) -->

<svg
   xmlns:dc="http://purl.org/dc/elements/1.1/"
   xmlns:cc="http://creativecommons.org/ns#"
   xmlns:rdf="http://www.w3.org/1999/02/22-rdf-syntax-ns#"
   xmlns:svg="http://www.w3.org/2000/svg"
   xmlns="http://www.w3.org/2000/svg"
   xmlns:xlink="http://www.w3.org/1999/xlink"
   xmlns:sodipodi="http://sodipodi.sourceforge.net/DTD/sodipodi-0.dtd"
   xmlns:inkscape="http://www.inkscape.org/namespaces/inkscape"
   width="128"
   height="128"
   id="svg2"
   version="1.1"
   inkscape:version="0.47 r22583"
   sodipodi:docname="quran-kareem4.svg">
  <defs
     id="defs4">
    <linearGradient
       id="linearGradient3607">
      <stop
         style="stop-color:#000000;stop-opacity:0.57251906;"
         offset="0"
         id="stop3610" />
      <stop
         style="stop-color:#000000;stop-opacity:0.20610687;"
         offset="1"
         id="stop3612" />
    </linearGradient>
    <linearGradient
       id="linearGradient3605">
      <stop
         style="stop-color:#ffff00;stop-opacity:1;"
         offset="0"
         id="stop3607" />
      <stop
         id="stop3615"
         offset="0.5"
         style="stop-color:#b4b400;stop-opacity:1;" />
      <stop
         style="stop-color:#ffea00;stop-opacity:1;"
         offset="1"
         id="stop3609" />
    </linearGradient>
    <linearGradient
       id="linearGradient3639">
      <stop
         style="stop-color:#00ff00;stop-opacity:1;"
         offset="0"
         id="stop3641" />
      <stop
         id="stop3649"
         offset="0.5"
         style="stop-color:#008200;stop-opacity:1;" />
      <stop
         style="stop-color:#65cb0f;stop-opacity:1;"
         offset="1"
         id="stop3643" />
    </linearGradient>
    <inkscape:perspective
       sodipodi:type="inkscape:persp3d"
       inkscape:vp_x="0 : 526.18109 : 1"
       inkscape:vp_y="0 : 1000 : 0"
       inkscape:vp_z="744.09448 : 526.18109 : 1"
       inkscape:persp3d-origin="372.04724 : 350.78739 : 1"
       id="perspective10" />
    <inkscape:perspective
       id="perspective2824"
       inkscape:persp3d-origin="0.5 : 0.33333333 : 1"
       inkscape:vp_z="1 : 0.5 : 1"
       inkscape:vp_y="0 : 1000 : 0"
       inkscape:vp_x="0 : 0.5 : 1"
       sodipodi:type="inkscape:persp3d" />
    <radialGradient
       inkscape:collect="always"
       xlink:href="#linearGradient3639"
       id="radialGradient3645"
       cx="21.480547"
       cy="11.077473"
       fx="21.480547"
       fy="11.077473"
       r="60.047894"
       gradientUnits="userSpaceOnUse" />
    <radialGradient
       inkscape:collect="always"
       xlink:href="#linearGradient3605"
       id="radialGradient3613"
       cx="219.30647"
       cy="596.03754"
       fx="219.30647"
       fy="596.03754"
       r="57.497196"
       gradientTransform="matrix(0.90178677,0,0,0.90339601,21.538798,57.579585)"
       gradientUnits="userSpaceOnUse" />
    <linearGradient
       inkscape:collect="always"
       xlink:href="#linearGradient3605"
       id="linearGradient3625"
       x1="70.772949"
       y1="56.21796"
       x2="-16.108767"
       y2="-35.902073"
       gradientUnits="userSpaceOnUse" />
    <linearGradient
       inkscape:collect="always"
       xlink:href="#linearGradient3607"
       id="linearGradient3614"
       x1="219.25476"
       y1="542.06317"
       x2="219.25476"
       y2="649.96875"
       gradientUnits="userSpaceOnUse" />
    <filter
       inkscape:collect="always"
       id="filter3616">
      <feGaussianBlur
         inkscape:collect="always"
         stdDeviation="1.077543"
         id="feGaussianBlur3618" />
    </filter>
  </defs>
  <sodipodi:namedview
     id="base"
     pagecolor="#ffffff"
     bordercolor="#666666"
     borderopacity="1.0"
     inkscape:pageopacity="0.0"
     inkscape:pageshadow="2"
     inkscape:zoom="4.1141628"
     inkscape:cx="64"
     inkscape:cy="64.000007"
     inkscape:document-units="px"
     inkscape:current-layer="layer1"
     showgrid="false"
     inkscape:window-width="1280"
     inkscape:window-height="975"
     inkscape:window-x="0"
     inkscape:window-y="25"
     inkscape:window-maximized="1" />
  <metadata
     id="metadata7">
    <rdf:RDF>
      <cc:Work
         rdf:about="">
        <dc:format>image/svg+xml</dc:format>
        <dc:type
           rdf:resource="http://purl.org/dc/dcmitype/StillImage" />
        <dc:title></dc:title>
      </cc:Work>
    </rdf:RDF>
  </metadata>
  <g
     inkscape:label="Layer 1"
     inkscape:groupmode="layer"
     id="layer1"
     transform="translate(-155.30648,-532.03752)">
    <path
       transform="matrix(1.0447169,0,0,1.0447169,196.86539,584.46469)"
       d="m 81.52844,11.077473 a 60.047894,60.047894 0 1 1 -120.095787,0 60.047894,60.047894 0 1 1 120.095787,0 z"
       sodipodi:ry="60.047894"
       sodipodi:rx="60.047894"
       sodipodi:cy="11.077473"
       sodipodi:cx="21.480547"
       id="path2827"
       style="fill:#000000;fill-opacity:1;stroke:none"
       sodipodi:type="arc" />
    <path
       sodipodi:type="arc"
       style="fill:url(#linearGradient3625);fill-opacity:1;stroke:none"
       id="path2861"
       sodipodi:cx="21.480547"
       sodipodi:cy="11.077473"
       sodipodi:rx="60.047894"
       sodipodi:ry="60.047894"
       d="m 81.52844,11.077473 a 60.047894,60.047894 0 1 1 -120.095787,0 60.047894,60.047894 0 1 1 120.095787,0 z"
       transform="matrix(1.0007433,0,0,1.0007433,197.80997,584.95181)" />
    <path
       sodipodi:type="arc"
       style="fill:#000000;fill-opacity:1;stroke:none"
       id="path2829"
       sodipodi:cx="21.480547"
       sodipodi:cy="11.077473"
       sodipodi:rx="60.047894"
       sodipodi:ry="60.047894"
       d="m 81.52844,11.077473 a 60.047894,60.047894 0 1 1 -120.095787,0 60.047894,60.047894 0 1 1 120.095787,0 z"
       transform="matrix(0.93111846,0,0,0.93111846,199.30555,585.72307)" />
    <path
       transform="matrix(0.90545262,0,0,0.90545262,199.85686,586.00739)"
       d="m 81.52844,11.077473 a 60.047894,60.047894 0 1 1 -120.095787,0 60.047894,60.047894 0 1 1 120.095787,0 z"
       sodipodi:ry="60.047894"
       sodipodi:rx="60.047894"
       sodipodi:cy="11.077473"
       sodipodi:cx="21.480547"
       id="path2865"
       style="fill:url(#radialGradient3645);fill-opacity:1;stroke:none"
       sodipodi:type="arc" />
    <path
       style="fill:url(#linearGradient3614);fill-opacity:1;filter:url(#filter3616)"
       d="m 215.5,542.125 c -8.89782,2.66056 -18.12368,5.432 -26.125,10.1875 -2.40492,1.94081 -2.71962,5.85325 -1.8125,8.125 -2.68316,2.67329 -4.77096,0.74543 -3.3125,-2.125 1.16626,-4.25824 -4.7348,-4.08591 -5.28125,-0.375 -1.49196,2.73886 -0.88998,6.28001 -0.625,8.8125 -1.43418,1.4889 -0.32809,6.21713 -2.21875,5.375 -0.66947,-4.25194 -5.76561,-0.87853 -6.125,2.0625 -1.67661,2.52663 -2.01248,6.63967 0.96875,8.3125 -2.30822,1.77739 -7.18588,3.63197 -4.9375,7.40625 2.05273,1.94847 5.70031,-1.34705 6.1875,-0.9375 -2.29746,3.36482 -2.06956,7.98756 -2.5625,11.3125 -2.18034,0.60934 -4.60292,3.78347 -2.15625,5.5625 -2.48476,1.91997 -2.77646,8.17924 1.59375,6.25 1.32006,-0.63634 2.82337,-4.16293 1.78125,-0.8125 -1.48893,5.3999 -0.72124,14.23317 6.125,15.03125 -1.01057,2.40443 1.79691,3.70358 -0.25,5.9375 -0.58801,3.92698 4.91089,3.56484 5.53125,0.21875 1.42778,9.78082 13.94092,11.63151 21.75,8.84375 2.533,-0.74201 5.07228,-1.61038 7.40625,-2.75 -1.26337,5.25596 2.09371,11.47692 7.90625,11.3125 3.54948,-0.20371 6.05047,-3.9228 8.0625,-5.71875 1.40035,1.30941 -2.1677,4.72733 1.28125,5.8125 3.96539,-0.15908 6.66368,-5.86794 5.90625,-9.09375 3.30089,1.19845 3.29884,5.51825 6.53125,6.75 3.05283,-0.71973 2.79319,-5.11068 4.09375,-6.5 4.94353,1.01269 3.86073,-5.98924 0.625,-7.40625 -2.63986,-2.04513 -4.51801,2.41752 -5.53125,2.8125 -0.96523,-1.4468 -4.66363,-1.96051 -1.375,-2.90625 2.52269,-1.01258 6.0116,-4.35681 7.15625,-0.40625 5.61118,5.92623 15.1301,-1.0584 15.5,-7.9375 0.56215,-2.17732 0.19965,-6.33195 0.84375,-1.53125 2.10797,4.36146 5.25892,-1.67136 5.5,-4.46875 1.25897,-5.62579 0.47255,-12.04009 0.71875,-17.3125 3.80481,0.36574 6.22391,-6.56471 2.65625,-7.8125 1.39785,-2.5352 2.3516,-9.18007 -2.40625,-7.0625 -1.71592,2.56671 -1.76794,1.79665 -1.78125,-1.5625 -1.9582,-3.49417 3.72931,-3.94001 1.9375,-7.46875 -1.87218,-3.68162 -2.12661,-9.08652 -6.09375,-11.125 -3.02457,2.9205 -2.68976,-3.5496 -4.375,-5.0625 -0.40006,-3.25485 -4.84738,-5.96213 -6,-1.78125 -1.12191,4.82515 0.69029,11.55135 -0.34375,15.21875 -4.21298,0.81775 -1.63922,-5.37681 -2.76569,-8.24694 -1.42807,-2.79687 3.22564,-2.61893 1.92194,-5.72181 -1.61074,-4.04223 -2.33625,-9.44313 -6.15625,-11.9375 -4.97776,1.28374 -2.63093,8.03785 -3,11.75 -1.83164,1.82012 -4.22174,0.25308 -1.03125,-1.34375 2.098,-4.41211 -2.2474,-9.29623 -3.8125,-13.40625 -2.47752,-3.57029 -5.8977,1.00561 -4.96875,3.96875 1.08523,4.52336 -2.01517,-0.76792 -2.71875,-1.21875 3.4495,-1.59636 2.82847,-7.24033 -1.46875,-6.625 -3.30051,-0.88708 -9.8647,1.93127 -6.46875,5.75 -1.30491,1.93603 -6.7279,1.76653 -9.52143,3.18988 -6.33615,1.61898 -12.82975,4.51632 -18.72857,6.18512 1.9188,-2.60957 7.88115,-3.61138 11.28713,-5.45367 4.09256,-2.59919 12.11189,-2.09372 13.49412,-7.76508 -0.01,-1.41245 -1.37324,-2.67112 -2.8125,-2.3125 z m 17.3125,16.375 c 2.819,2.5408 -3.75054,3.96274 -2.09375,2.65625 1.45516,-1.15229 2.19082,-8.72217 2.09375,-2.65625 z m -9.21875,-1.125 c 4.75464,-0.29102 -0.40788,2.46023 -1.57751,3.89816 -1.27707,1.63398 -2.12819,2.21955 -2.95374,0.13309 1.51334,-1.95442 1.17349,-4.84176 4.53125,-4.03125 z m -9.34375,1.9375 c -1.82576,2.89415 -3.15644,8.08238 0.9375,9.75 -1.99993,2.08963 -3.43117,8.72883 1.40625,7.15625 1.71364,-0.74384 3.52018,-5.03569 4.3125,-4.25 -0.6431,2.68283 1.25775,7.49046 -0.375,9.03125 -1.94744,1.92304 -1.45858,0.56098 -2.4375,-1.21875 -3.44528,-2.05662 -7.14014,-4.47475 -7.0625,-9.03125 4.69891,-2.10118 -0.7835,-7.29009 -1.71875,-10.25 1.46397,-0.37982 3.95064,-1.28908 4.9375,-1.1875 z m -10.53125,3.0625 c -0.0779,2.06144 0.60785,3.8699 -1.34375,1.8125 -2.9773,-1.43889 -4.47346,2.95179 -5.3125,4.0625 -3.02002,-3.93403 -8.80474,1.41709 -5.3125,4.875 0.95746,1.32325 3.12664,0.9814 3.5625,2.84375 -3.2073,-2.01708 -6.43976,-4.04302 -9.75,-5.8125 5.90656,-2.89028 12.04064,-5.5405 18.15625,-7.78125 z m 26.15625,0.0313 c -1.40468,1.93449 -1.84347,5.74279 -2.125,7.15625 -3.23354,-3.70185 0.24827,-4.44033 2.125,-7.15625 z m 3.6875,5.84375 c -0.74802,0.27749 0.54192,-2.50496 0,0 z m -28.875,3.5625 c 0.17548,2.97204 2.68178,7.48574 -2.00357,7.7132 -3.83339,0.9677 -1.46756,-1.66681 -1.05893,-3.61945 -0.15333,-2.73633 0.34708,-3.88234 2.625,-4.84375 0.42591,-0.9065 0.2475,0.20922 0.4375,0.75 z M 260,572.59375 c 0.13539,11.28655 1.42933,22.52752 1.71875,33.8125 -0.34568,-11.16172 -2.40313,-23.17219 -2.03125,-33.78125 0.063,0.0424 0.36548,-0.18456 0.3125,-0.0313 z m -25.84375,3.34375 c -0.91855,2.18274 2.71665,9.24665 -0.5625,8.71875 -4.31122,1.45876 -4.56725,7.817 -4.28125,11.75 0.3737,3.79183 5.63782,3.48488 6.53125,1.1875 1.96504,5.88444 -8.30823,5.05201 -6.68962,-0.30189 -0.44971,-5.2692 -0.87861,-10.54178 -1.15413,-15.82311 4.19118,0.4752 2.30006,-5.41576 1.78125,-7 2.57287,2.39598 5.09456,-4.01804 4.375,1.46875 z m 9.46875,4.46875 c -0.009,2.44156 1.54571,6.07715 -1.53125,7.21875 -0.0167,-4.18386 -1.42427,-9.63055 -0.75,-13.09375 3.66013,-2.15923 1.20974,3.77586 2.28125,5.875 z m -62.09375,-2.625 c 2.63244,1.29007 3.27598,1.98313 1.21875,4.03125 -1.83578,3.81238 -3.85797,9.88606 0.40625,12.84375 -2.13879,1.46453 -4.60267,4.9313 -7.28125,4.4375 -1.12243,-6.5614 5.02212,-11.57122 5.3125,-17.75 -0.95016,-1.01737 -0.26486,-3.36974 0.34375,-3.5625 z m 6.28125,4.28125 c 7.02204,0.85349 2.65313,9.70109 -0.1875,5.5 -2.27828,0.26267 0.28698,-5.11738 0.1875,-5.5 z m 66.0625,11.28125 c 1.72231,7.41022 -0.45114,6.18514 -3.6875,6.28125 1.70037,-4.13532 0.0318,-9.18373 1.8125,-12.96875 2.5017,-3.00945 1.27553,5.4228 1.875,6.6875 z M 210.09375,586.125 c 2.21384,0.004 4.73146,1.61982 6.3125,2.0625 0.21181,5.50918 -4.60176,-1.80819 -6.3125,-2.0625 z m 25.375,4.65625 c -0.006,4.74869 -1.36767,-2.28363 0,0 z m -36.8125,-0.0313 c 2.66038,2.84633 6.7466,6.52305 7.09375,10.4375 -2.9833,2.21945 0.54285,-2.75649 -2.09375,-3.9375 -2.50807,-2.05537 -5.74302,-6.0189 -7.25,-0.96875 -0.57762,0.0734 -4.11629,-1.8738 -1.28125,-2.5625 1.20281,-1.01969 2.19794,-2.18636 3.53125,-2.96875 z m 45.875,2.59375 c 0.34825,3.38232 1.40495,6.92424 -1.5625,9.125 -1.5127,1.06106 -0.20002,4.46152 -2.34375,3.25 2.53399,-3.68895 1.26918,-9.08637 2.375,-12.59375 0.64377,-0.0499 1.91527,-1.44357 1.53125,0.21875 z m -22.625,1.5 c -1.20572,-0.0442 0.65428,-1.21733 0,0 z M 211.46875,597 c 2.04335,1.38901 -0.64993,2.46285 0,0 z m -22.875,3.15625 c 0.54421,3.63401 6.27559,6.89965 8.71875,3.21875 1.33066,1.71249 -4.32962,1.94553 -5.625,3.46875 -2.09403,0.5653 -4.22855,4.50355 -4.71875,0.875 -2.64784,-0.73627 0.7035,-4.43571 0.25,-6.375 -0.024,0.69457 1.42257,-1.93529 1.375,-1.1875 z m 33.96875,5.5625 c 1.79785,6.86142 -1.60187,3.57046 -3.375,0 0.30648,-2.46948 -0.36122,-3.20914 2.26472,-0.84262 l 0.79657,0.60454 0.31371,0.23808 z m -11.375,-2 c 0.8614,2.01017 -1.78273,2.52244 0,0 z m -31,3.1875 c -0.61178,2.6373 -0.84114,6.76276 2.0625,7.84375 -1.17314,1.07964 -4.91612,5.23642 -6.3125,3.03125 -0.42014,-3.56577 0.29391,-9.81654 4.25,-10.875 z m 75.09375,5.84375 c -0.68568,4.17681 2.70741,10.6266 -1.28125,13.6875 -1.60703,0.66513 -3.37264,0.51202 -1.40625,-1.1875 3.46726,-4.60937 3.56465,-11.74372 -0.4375,-15.6875 2.88585,-1.3431 3.28839,-1.86689 3.06624,2.36483 l 0.0588,0.82267 z m -5.34375,-4.0625 c 0.68535,0.33583 -2.84545,0.62118 -0.4375,-0.375 l 0.4375,0.375 z m -2.90625,0.90625 c -1.24805,1.13706 -1.48915,0.13805 0,0 z m -16.78125,0.4375 c 1.46649,0.90667 6.274,-1.02313 2.91744,1.46436 -4.83864,3.7385 3.70569,-0.27441 -0.69869,3.34814 -2.10634,2.24844 -0.74976,5.24603 -2.1875,7.65625 1.20447,4.88836 7.00069,0.49224 10.03125,-0.125 4.5094,-2.96679 1.38248,2.88295 -2.14208,2.83912 -3.01973,1.03148 -7.03699,4.02414 -8.70167,5.03588 1.0543,-6.59548 0.0456,-14.33327 0.78125,-20.21875 z m -16.34375,0.1875 c 0.0283,2.25027 1.66152,4.02725 -1.34375,2.90625 -2.97934,1.07912 -3.0301,6.21531 -4.09375,7.4375 -2.02209,-1.82767 -4.9945,-3.22837 -1.125,-4.75 2.25018,-1.59975 4.8523,-4.21123 6.5625,-5.59375 z M 204.75,610.6875 c -1.92877,3.41087 -5.50703,1.30823 -8.15625,3.78125 -2.46578,1.33601 -5.55875,3.41101 -7.5,4.625 2.62116,-5.16574 11.42321,-6.59848 15.65625,-8.40625 z m 39.8125,1.34375 c -1.02516,2.22546 -1.65056,6.0357 -3.59375,3.53125 -1.05528,-2.65215 2.54772,-2.04103 3.59375,-3.53125 z m -21.4375,3.3125 c 1.10458,4.77334 -1.14561,1.63021 -0.375,-0.25 0.34987,0.1512 0.47065,-0.86299 0.375,0.25 z m -7.40625,1.71875 c 0.66603,3.26398 4.72534,8.38635 -0.3125,10.21875 -6.71276,4.3929 -15.94736,8.70071 -23.8125,5.15625 -2.64688,-1.54895 -4.27585,-5.24981 -3.53125,-7.84375 1.60108,0.72286 3.84182,-1.21494 2.9375,1.5625 -0.71768,3.32254 1.91235,8.86124 5.78125,5.96875 2.2784,-1.48857 3.7119,-6.31423 -0.25,-6.4375 -0.58301,-3.17122 2.28934,-7.19491 5.25,-7.09375 -4.58711,3.31647 -0.31824,9.92824 4.4375,9.28125 2.54829,-0.0871 2.32462,-5.61321 3.96875,-2.09375 3.42438,4.42679 9.15269,-2.52134 5.5,-5.75 -2.00609,0.66911 0.009,-5.77481 0.0313,-2.96875 z m 32.875,1.09375 c 0.57637,2.23678 -0.73902,2.00665 -0.0625,-0.0313 l 0.0313,-0.0625 0.0313,0.0937 z M 223.4375,628.25 c -0.0919,2.68231 0.0114,6.1627 0.78125,8.15625 -2.14445,1.68385 -4.38839,5.8991 -7,6 -2.91152,-6.00032 3.96547,-9.84667 6.21875,-14.53125 l 0,0.375 z m 10,8.75 c -0.18346,1.87726 0.88199,3.02756 -1.0625,1.375 -1.19145,0.32221 1.15076,-1.31163 1.0625,-1.375 z"
       id="path2831" />
    <path
       style="fill:url(#radialGradient3613);fill-opacity:1"
       d="m 215.36094,646.27281 c -1.80266,-1.55012 -1.9148,-1.91974 -1.9148,-6.31075 l 0,-4.66419 -3.09297,1.5663 c -1.70114,0.86146 -5.27929,2.12547 -7.95146,2.80889 -5.40094,1.38133 -10.04378,0.98793 -13.71462,-1.16205 -3.53086,-2.06801 -4.57813,-4.18785 -4.59029,-9.29151 -0.005,-2.52742 0.21511,-5.74419 0.49142,-7.14838 0.2794,-1.41991 0.26189,-2.19768 -0.0394,-1.75238 -1.24159,1.83482 -4.97262,3.98632 -6.91289,3.98632 -3.34267,0 -5.35801,-2.94336 -5.35801,-7.82525 0,-2.30768 0.53473,-5.40381 1.31082,-7.58972 l 1.31081,-3.69201 -1.47037,-1.99081 c -1.14961,-1.55652 -1.46565,-2.80581 -1.44866,-5.72649 0.0182,-3.14128 0.47148,-4.61046 2.84848,-9.23397 2.8397,-5.52348 4.4774,-7.72044 4.46218,-5.98599 -0.005,0.48179 -0.6806,2.05261 -1.50305,3.49071 -2.72545,4.76562 -4.47759,10.56507 -3.9851,13.19034 0.38605,2.0578 0.68473,2.38523 2.17385,2.38317 2.56907,-0.005 4.92869,-1.70048 12.74794,-9.16779 l 7.08145,-6.76274 -4.74119,-3.46246 c -2.60765,-1.90434 -6.01673,-4.26941 -7.57571,-5.2557 -3.93102,-2.48694 -5.06112,-5.29145 -3.50682,-8.70277 0.76382,-1.67636 1.82113,-2.42744 7.13509,-5.06849 2.01852,-1.00322 3.67004,-1.93913 3.67004,-2.07981 0,-0.14068 -0.47053,-0.72633 -1.04565,-1.30144 -1.67777,-1.67777 -0.20778,-5.66609 2.48452,-6.74092 1.13938,-0.45487 3.88239,-1.64195 6.09557,-2.63797 4.3624,-1.96326 17.44021,-6.39212 17.80319,-6.02914 0.77579,0.7758 -0.96555,2.24806 -3.81919,3.22901 -9.60815,3.30282 -21.51844,8.29689 -21.51844,9.0228 0,0.18948 0.43516,1.18599 0.96701,2.21448 l 0.96702,1.87001 3.34129,-1.3397 c 10.65897,-4.27376 26.4085,-8.84637 30.46976,-8.84637 0.73284,0 2.05047,0.71802 2.92805,1.5956 1.34882,1.34881 1.52974,1.96577 1.16985,3.98916 -0.62025,3.48718 -2.25456,5.8354 -6.992,10.04627 -2.31741,2.05983 -5.1206,5.00828 -6.22929,6.55212 -2.44961,3.41102 -3.01568,2.55123 -0.99031,-1.50418 1.33814,-2.67937 5.33845,-7.01275 10.42474,-11.29273 1.88706,-1.5879 1.89503,-1.62147 0.69893,-2.94316 -0.88243,-0.97508 -1.97779,-1.33694 -4.04682,-1.33694 -2.92034,0 -12.22705,2.24057 -18.98549,4.5707 -7.58098,2.61372 -22.65848,9.34717 -22.65848,10.11903 0,0.21575 0.93346,0.87357 2.07437,1.46184 2.17418,1.12105 7.36311,4.23733 13.72373,8.24196 l 3.76956,2.37332 2.95216,-1.12062 c 1.62371,-0.61634 3.10409,-1.27253 3.28972,-1.45818 0.18566,-0.18565 -0.2707,-3.80673 -1.0141,-8.04686 -1.28989,-7.35695 -1.2535,-11.03505 0.10911,-11.03505 0.34437,0 0.62611,0.26814 0.62611,0.59586 0,0.32771 0.90649,2.05408 2.01442,3.83636 1.99553,3.21017 2.11057,4.79642 0.23494,3.23978 -1.2128,-1.00653 -1.2673,-0.17215 -0.28722,4.39776 0.8237,3.84081 2.61439,6.28385 5.4851,7.4833 1.90592,0.79634 2.12677,1.15285 2.12677,3.43313 0,2.81721 -0.29922,2.97812 -2.95881,1.59104 -2.13112,-1.11146 -5.52603,-1.24757 -7.30958,-0.29303 -1.11005,0.59407 -0.48527,1.21479 5.62681,5.59011 3.78153,2.70701 7.95258,5.74339 9.26901,6.74754 l 2.39351,1.8257 0,-1.72617 c 0,-0.94939 -0.30892,-7.27841 -0.68648,-14.06451 -0.59172,-10.63496 -0.55481,-12.58802 0.26743,-14.14671 l 0.95393,-1.80835 1.38032,3.19133 c 3.22062,7.44615 3.80414,11.29364 1.19901,7.90561 l -1.17102,-1.52293 0.0425,3.51047 c 0.0233,1.93075 0.37598,7.50399 0.78363,12.38498 l 0.74117,8.87451 2.48304,1.28724 c 2.28078,1.18238 2.6967,1.21338 5.10614,0.38037 l 2.62313,-0.90688 0.11723,-3.8296 c 0.0646,-2.10628 -0.14789,-6.12737 -0.47194,-8.93574 -0.32406,-2.80838 -0.86592,-8.98362 -1.20411,-13.72275 -0.33821,-4.73914 -0.93266,-12.57341 -1.32099,-17.4095 -0.66011,-8.22048 -0.51448,-11.32953 0.52933,-11.30037 0.60544,0.0169 4.58442,9.17518 4.58442,10.55182 0,1.06052 -0.0706,1.05873 -1.27654,-0.0326 -1.5612,-1.41286 -1.54032,-2.00316 -0.36103,10.21227 2.5843,26.7692 2.74175,30.6804 1.41253,35.09035 -1.29254,4.28827 -5.91351,6.47152 -10.22655,4.83172 l -1.59895,-0.60793 0.12129,10.66065 c 0.11712,10.29346 -0.71404,16.72416 -2.16157,16.72416 -0.28672,0 -0.46481,-2.8004 -0.39575,-6.22311 0.0692,-3.4227 -0.11739,-10.13701 -0.41432,-14.92066 l -0.53988,-8.69756 -4.24714,-3.23094 c -2.33591,-1.77701 -4.8217,-3.75112 -5.52394,-4.38693 -0.70226,-0.63579 -2.95971,-2.40975 -5.01657,-3.94214 l -3.73973,-2.78615 1.61811,2.78615 c 2.11653,3.64435 2.67117,6.88673 1.69782,9.92507 -1.20935,3.77492 -2.91363,5.1483 -8.54675,6.88726 -6.01267,1.85614 -11.41274,4.79961 -12.86137,7.01049 -0.56042,0.85531 -1.3146,3.36525 -1.67593,5.57763 -0.84431,5.16941 0.14144,8.24936 3.50869,10.96284 2.07771,1.67433 3.07171,1.99408 6.86513,2.20842 6.39195,0.36118 14.86933,-2.7275 21.24084,-7.73893 2.91268,-2.29094 2.90161,-2.90599 -0.20773,-11.53724 -1.55348,-4.31226 -1.93625,-6.20647 -1.60788,-7.95681 l 0.43096,-2.29723 2.79286,3.16981 c 3.09939,3.5177 3.46526,4.4391 1.56537,3.94226 -1.5757,-0.41205 -1.57569,-0.2847 2.3e-4,3.86183 1.41721,3.72873 1.66158,8.43381 0.5488,10.56653 -0.40009,0.76677 -1.93479,2.698 -3.41043,4.29161 -2.19743,2.37307 -2.76442,3.51118 -3.13283,6.28837 -0.34348,2.58937 -0.21279,3.75266 0.55294,4.9213 2.05015,3.12893 4.05856,1.78727 13.60869,-9.09094 3.37104,-3.83983 4.76472,-4.7628 11.85589,-7.85166 l 3.74757,-1.63242 0.1337,-4.46787 c 0.17835,-5.96059 1.99827,-9.25489 5.1128,-9.25489 1.13305,0 1.72187,0.6026 2.50748,2.566 0.56469,1.41131 1.0267,3.09851 1.0267,3.74935 0,1.99219 -1.88214,6.65212 -3.29365,8.15461 -1.93639,2.06119 -1.13803,3.40155 2.0261,3.40155 1.91172,0 3.01779,-0.41568 4.16878,-1.56667 1.90089,-1.90088 1.92795,-2.78201 0.62847,-20.45357 -2.95169,-40.13975 -3.20171,-46.94251 -1.72373,-46.90048 0.48939,0.014 4.5767,9.06405 4.5767,10.13377 0,1.08603 -1.13754,0.83434 -1.86366,-0.41236 -0.92112,-1.58146 -0.88133,0.89268 0.238,14.80329 2.97891,37.02051 2.80786,42.43984 -1.4689,46.53724 -3.66407,3.5104 -8.15631,3.42614 -9.75385,-0.18298 -0.47674,-1.07704 -1.19167,-1.95824 -1.58872,-1.95824 -1.5961,0 -10.77908,4.64554 -13.08557,6.61982 -1.35426,1.1592 -3.87093,3.96839 -5.5926,6.24267 -4.97115,6.56673 -7.69451,7.6899 -11.24426,4.63739 z m 34.00529,-24.23787 c 1.6479,-1.15424 1.88436,-3.87955 0.49853,-5.74581 -1.9299,-2.59893 -4.28448,1.16449 -3.26641,5.22084 0.44763,1.78348 0.85954,1.86161 2.76788,0.52497 z m -69.34878,-2.68066 c 0.92184,-0.61202 3.22833,-2.71845 5.12555,-4.68098 4.82162,-4.98755 7.77877,-6.76602 15.6815,-9.43103 5.69557,-1.92069 6.91117,-2.55751 7.07477,-3.70627 0.29305,-2.05782 -1.99654,-6.06982 -5.72359,-10.02927 -3.94232,-4.18816 -2.8823,-4.62259 -13.12129,5.37749 -4.37995,4.27776 -8.35762,7.57904 -10.01553,8.3124 -2.21959,0.98183 -2.94821,1.74179 -3.77685,3.93936 -2.47119,6.55354 -1.91837,11.34294 1.3084,11.33526 0.97406,-0.002 2.52523,-0.50493 3.44704,-1.11696 z m 2.25996,-6.96356 c -0.79706,-0.79705 -0.42857,-5.43864 0.60461,-7.61591 1.03918,-2.18989 2.68698,-3.13108 1.84509,-1.05388 -1.36495,3.36776 -1.69009,4.74513 -1.33722,5.66471 0.31724,0.82668 0.57292,0.87108 1.34177,0.233 1.11409,-0.92461 1.1703,-0.65669 0.32737,1.56039 -0.59465,1.56404 -1.87258,2.12074 -2.78162,1.21169 z m 9.6639,-10.60754 c -1.67452,-1.37695 -1.69118,-1.45812 -0.64999,-3.16839 1.20198,-1.97444 2.1589,-2.20398 3.32592,-0.79782 1.10381,1.32999 2.31401,1.19536 3.41757,-0.38019 l 0.93688,-1.33757 1.97151,1.4576 c 2.2957,1.69728 2.38199,2.26931 0.6551,4.34307 l -1.27394,1.52983 -1.63124,-1.52983 -1.63124,-1.52985 -1.16506,1.4361 c -1.429,1.76145 -1.78802,1.75937 -3.95551,-0.023 z m 37.16268,45.65907 c 0.0113,-0.26328 0.44199,-1.03623 0.95739,-1.71765 1.21878,-1.61139 1.20773,-2.97357 -0.0203,-2.50233 -1.38332,0.53083 -1.17584,-0.65018 0.35811,-2.03839 1.12583,-1.01886 1.40049,-1.05613 1.90502,-0.25849 0.84325,1.33315 0.77152,1.74571 -0.78499,4.51516 -1.25896,2.24002 -2.46783,3.2419 -2.41524,2.0017 z m 10.55054,-4.31236 c -0.54272,-1.29892 -1.61759,-2.49748 -2.56162,-2.85641 -1.86349,-0.70849 -2.38555,-3.84134 -0.64014,-3.84134 1.03016,0 3.33073,2.11867 4.45675,4.10434 0.61117,1.07774 0.6631,1.06505 0.75727,-0.1851 0.13681,-1.81604 1.60359,-4.72567 2.53507,-5.02871 0.97714,-0.31789 2.99986,2.74727 2.42584,3.67605 -0.3001,0.48554 -0.81442,0.36682 -1.63739,-0.37795 -1.33796,-1.21084 -1.19658,-1.419 -2.52359,3.71535 -0.43097,1.66746 -1.02962,3.03176 -1.33034,3.03176 -0.30071,0 -0.96754,-1.0071 -1.48185,-2.23799 z M 178.68318,632.7621 c 0.0125,-0.26328 0.43309,-1.19675 0.93478,-2.07437 1.17511,-2.05563 1.17511,-2.55307 0,-2.55307 -1.15411,0 -1.2339,-0.74473 -0.19148,-1.78715 1.05025,-1.05026 2.21413,-0.96062 2.66142,0.20499 0.39906,1.03997 -2.06373,6.6883 -2.91625,6.6883 -0.28111,0 -0.50092,-0.21541 -0.48847,-0.4787 z m 15.30124,-2.0514 c -1.04516,-0.66747 -1.31516,-5.46617 -0.47621,-8.46317 l 0.48663,-1.73838 -2.26912,1.33881 c -2.37916,1.40373 -3.57254,1.2211 -2.27071,-0.34752 0.82282,-0.99142 8.53487,-5.77267 10.51503,-6.51899 1.96135,-0.73925 0.91387,1.14132 -1.57239,2.82294 -3.14044,2.12407 -4.07309,4.2885 -3.85105,8.93718 0.0562,1.17716 0.33125,1.3964 1.34719,1.07396 1.57391,-0.49955 1.6389,0.38009 0.15956,2.15955 -0.80855,0.9726 -1.37982,1.17571 -2.06893,0.73562 z m 9.35739,-5.7965 c -1.99127,-1.56633 -2.12093,-2.52645 -0.58665,-4.34396 l 1.11696,-1.32317 1.88871,1.54243 c 1.65069,1.34806 1.81156,1.76072 1.27653,3.27467 -0.80597,2.28063 -1.63456,2.47122 -3.69555,0.85003 z m 8.24949,-0.54288 c -1.28169,-1.41624 -1.28164,-2.89285 2e-4,-6.65486 1.17469,-3.44751 2.38257,-3.47605 1.43213,-0.0338 -0.73331,2.65582 -0.16924,6.18149 0.75079,4.69283 0.76581,-1.2391 1.29597,-0.55149 0.86004,1.11549 -0.48509,1.85497 -1.8134,2.23926 -3.04316,0.88039 z m 20.68373,-1.87511 c 0,-0.36789 0.27781,-0.84058 0.61736,-1.05043 0.33954,-0.20986 0.45771,-1.17979 0.26258,-2.15544 -0.26638,-1.33191 0.078,-2.28818 1.38218,-3.83814 1.96845,-2.33935 4.43968,-2.56314 4.43968,-0.40202 0,0.98391 -0.42551,1.27653 -1.85631,1.27653 -1.02098,0 -1.97026,0.33466 -2.1095,0.74368 -0.36137,1.06141 2.09742,1.68349 4.71391,1.19264 1.87389,-0.35155 2.19839,-0.24688 2.01888,0.65117 -0.13206,0.66058 -1.55721,1.49949 -3.72438,2.19233 -1.93076,0.61728 -4.0131,1.33296 -4.62744,1.59044 -0.65102,0.27284 -1.11696,0.1891 -1.11696,-0.20076 z m 31.59424,-8.88178 c 0,-5.17814 -0.5073,-16.63618 -1.12731,-25.46231 -0.84676,-12.05408 -0.95185,-16.50142 -0.42224,-17.8715 0.69538,-1.79894 0.73463,-1.75391 2.86011,3.28218 1.18527,2.80836 2.16515,5.46516 2.17748,5.90397 0.0327,1.16775 -1.08842,0.97342 -1.84126,-0.31913 -0.92095,-1.58118 -0.85749,1.72061 0.27295,14.20145 1.21924,13.46125 1.20941,22.19983 -0.0296,26.37224 -0.54018,1.81895 -1.18643,3.30736 -1.43611,3.30754 -0.24968,1.9e-4 -0.45396,-4.23631 -0.45396,-9.41444 z m -61.57774,2.05586 c 0.4453,-0.53656 3.04548,-2.86234 5.77817,-5.16843 2.7327,-2.30606 5.12441,-4.59906 5.31492,-5.09554 0.19052,-0.49646 0.0262,-1.60556 -0.36528,-2.46464 -0.57088,-1.25291 -0.49588,-1.8913 0.37896,-3.22648 0.87949,-1.34228 1.26772,-1.51757 2.00534,-0.9054 0.50309,0.41752 0.9147,1.52818 0.9147,2.46813 0,0.93995 0.31964,2.02863 0.71032,2.4193 0.8338,0.83381 0.17522,2.21082 -0.9354,1.95577 -0.42188,-0.0968 -1.89622,1.07369 -3.2763,2.60125 -2.8777,3.18527 -9.43565,8.3916 -10.57018,8.3916 -0.57484,0 -0.56371,-0.24241 0.0447,-0.97556 z m 36.36617,-4.06137 c 0,-0.38913 0.57444,-0.70747 1.27653,-0.70747 0.7021,0 1.27654,-0.31005 1.27654,-0.689 0,-0.44045 -0.74825,-0.53307 -2.07438,-0.25675 l -2.07436,0.4322 1.37648,-1.42111 c 1.12655,-1.16309 1.79294,-1.34299 3.67004,-0.99085 2.56629,0.48145 2.80839,0.98716 1.17658,2.45772 -1.46135,1.31695 -4.62743,2.12105 -4.62743,1.17526 z m -71.07091,-1.19056 c -0.19722,-0.31911 0.34723,-1.61892 1.20991,-2.88845 1.45801,-2.14566 1.48974,-2.35295 0.45048,-2.94269 -1.04028,-0.59033 -1.04462,-0.70878 -0.0624,-1.70352 1.46908,-1.48762 2.66865,-0.55137 2.21294,1.7272 -0.45071,2.25355 -3.31235,6.61431 -3.81101,5.80746 z m 77.14925,-3.96844 c -1.06794,-1.18007 -1.0733,-1.36265 -0.0842,-2.8722 1.2147,-1.85385 1.52886,-1.91586 3.22117,-0.63578 1.11201,0.84112 1.38779,0.79393 2.73007,-0.46708 l 1.49311,-1.40269 1.7233,1.7233 1.72331,1.7233 -1.71651,1.71651 c -1.67794,1.67793 -1.74576,1.69006 -3.01728,0.53935 -1.21292,-1.0977 -1.37957,-1.10585 -2.46798,-0.12085 -1.51542,1.37145 -2.21515,1.33188 -3.60497,-0.20386 z m 2.21913,-7.13514 c 0,-1.24737 -0.18495,-4.0374 -0.41099,-6.20006 l -0.41098,-3.93208 -2.22253,1.31133 c -2.43104,1.43435 -3.79316,1.09516 -1.7415,-0.43366 4.36361,-3.2516 4.07515,-2.43614 3.46518,-9.7957 -1.88285,-22.71747 -2.00885,-28.72204 -0.60269,-28.72204 0.6002,0 4.47659,9.19246 4.47659,10.61577 0,0.97422 -0.11526,0.96659 -1.27659,-0.0845 -1.26254,-1.14258 -1.27355,-1.12088 -1.00139,1.97545 0.15135,1.72189 0.4926,6.14655 0.75834,9.83255 0.26573,3.68599 0.53683,6.91721 0.60247,7.1805 0.0657,0.26329 0.15523,1.23191 0.19911,2.15253 0.0683,1.43302 0.22141,1.55628 1.06424,0.85679 0.68298,-0.56683 0.78071,-1.02076 0.31914,-1.48234 -0.93466,-0.93465 -0.82729,-3.13587 0.223,-4.57223 0.73096,-0.99963 1.0599,-1.07249 1.85667,-0.41122 1.21836,1.01114 1.27949,6.48824 0.0725,6.48824 -1.60839,0 -3.4996,3.2651 -3.10747,5.36489 0.42796,2.29165 -0.77346,10.62453 -1.66054,11.51728 -0.37854,0.38098 -0.6025,-0.23666 -0.6025,-1.6616 z m 20.68561,-0.86375 c -0.48893,-1.94804 0.16262,-5.70776 1.40572,-8.11166 1.52057,-2.94044 2.04339,-2.0039 0.84972,1.52211 -1.18065,3.48756 -1.01367,5.29275 0.43808,4.73566 1.04253,-0.40006 1.05667,-0.2984 0.25256,1.81653 -0.79496,2.09092 -2.42548,2.11161 -2.94608,0.0374 z m -36.38608,-2.57235 c -0.63583,-2.53333 1.14377,-9.2314 2.45267,-9.2314 0.69696,0 0.60742,0.58754 -0.55248,3.62463 -1.19833,3.13782 -0.80993,5.30084 0.72336,4.02831 1.15508,-0.95861 1.30565,0.0637 0.28913,1.96303 -0.92807,1.7341 -2.43073,1.53568 -2.91268,-0.38457 z m -48.17311,-4.2128 c -0.84506,-1.57899 -0.50671,-4.37303 0.95245,-7.86529 1.27726,-3.05691 1.97552,-2.58725 1.05928,0.71247 -0.37468,1.34935 -0.68283,3.11895 -0.68479,3.93247 -0.002,1.20644 0.24028,1.40172 1.3192,1.05927 1.28482,-0.40777 1.29349,-0.36325 0.30275,1.55267 -1.20052,2.32152 -1.94938,2.47603 -2.94889,0.60841 z m 35.2488,0.52385 c -0.77513,-0.93396 -0.0281,-4.4822 1.6159,-7.67613 1.43177,-2.78146 1.73742,-1.52923 0.52079,2.13368 -1.15806,3.48658 -0.95794,4.51606 0.62285,3.20414 1.17331,-0.97377 1.33491,0.0327 0.3121,1.94396 -0.7657,1.4307 -2.07232,1.59845 -3.07164,0.39435 z m -50.75119,-4.58505 c 0.20206,-0.52657 0.57368,-0.9574 0.82581,-0.9574 0.65813,0 7.97893,-5.73787 8.24153,-6.45953 0.12095,-0.33238 -0.12942,-1.02524 -0.55639,-1.53969 -1.09083,-1.31439 0.36454,-4.76612 2.00959,-4.76612 0.97859,0 1.19909,0.48192 1.19909,2.62078 0,3.24362 -2.52933,6.68194 -7.25814,9.86649 -3.48722,2.34843 -5.05519,2.78263 -4.46149,1.23547 z m 3.44643,-7.93297 c -0.56604,-1.05768 -0.4584,-1.91843 0.51514,-4.11932 0.67691,-1.53024 1.5505,-2.97988 1.94133,-3.22142 0.92328,-0.57061 0.89884,-0.332 -0.24681,2.40993 -0.52657,1.26025 -0.9574,2.62298 -0.9574,3.02829 0,0.53143 0.26698,0.51535 0.9574,-0.0576 1.49839,-1.24353 1.24556,0.81791 -0.26832,2.18798 -1.16928,1.05816 -1.25873,1.04766 -1.94134,-0.2278 z m 26.21728,-4.37095 c -0.86774,-1.70091 -1.82999,-2.67507 -2.77486,-2.80917 -1.82374,-0.25887 -2.3785,-2.8824 -0.74226,-3.51029 0.7852,-0.3013 1.61917,0.17945 2.83254,1.63287 l 1.71968,2.0599 0.70943,-2.81739 c 0.90276,-3.58517 2.27608,-4.88837 3.24451,-3.07886 1.27556,2.38341 0.34629,4.67364 -1.00754,2.48311 -0.60128,-0.97291 -1.34098,1.38905 -1.44717,4.62101 -0.12674,3.85761 -1.03169,4.36425 -2.53433,1.41882 z m 33.11878,-3.01273 c -0.87837,-1.05838 -0.60908,-4.52225 0.59006,-7.58993 1.08777,-2.78273 1.61107,-1.4638 0.70425,1.77503 -0.78729,2.81193 -0.48437,4.58027 0.66313,3.87108 0.94053,-0.58128 0.69032,1.38682 -0.27856,2.19091 -0.66403,0.55111 -1.06547,0.49203 -1.67888,-0.24709 z m 9.55251,-0.99659 c -0.78418,-1.46528 -0.31343,-4.52999 1.07268,-6.98351 0.83863,-1.48443 0.87364,-1.36185 0.50236,1.75835 -0.3454,2.90268 -0.26216,3.30146 0.61861,2.96347 1.17136,-0.44949 1.32196,0.53805 0.357,2.34108 -0.8512,1.59044 -1.67062,1.56495 -2.55065,-0.0794 z m -24.71282,-4.52608 c -0.43881,-0.43886 -0.79784,-1.33273 -0.79784,-1.98635 0,-1.5795 3.12295,-8.13029 3.87595,-8.13029 0.92197,0 0.70518,1.0599 -0.68224,3.33547 -1.5753,2.58376 -1.77678,4.89323 -0.32151,3.68547 1.40382,-1.16507 1.28338,0.73257 -0.15956,2.51438 -0.89364,1.10347 -1.2765,1.21972 -1.9148,0.58132 z m -34.88276,-1.6504 c -0.74184,-0.74185 -0.36823,-4.72573 0.62294,-6.64245 1.26746,-2.45099 1.92905,-1.91861 0.98413,0.79194 -0.92623,2.657 -0.89825,3.12867 0.18559,3.12867 0.57268,0 0.78098,0.44614 0.57537,1.23239 -0.33602,1.28495 -1.70896,2.14852 -2.36803,1.48945 z m 43.65894,-16.64052 c 0,-0.28327 0.78984,-0.85247 1.75523,-1.26487 1.70878,-0.72999 1.69189,-0.74276 -0.63827,-0.48248 -2.48194,0.27723 -2.93958,-0.12754 -1.62758,-1.43954 0.79391,-0.79392 5.73602,-1.07216 6.44532,-0.36285 0.77174,0.77172 -0.81516,2.65872 -2.82514,3.3594 -2.40779,0.83936 -3.10956,0.88231 -3.10956,0.19034 z"
       id="path2830" />
  </g>
</svg>
